name analog
datacolumns 19
datarows 65
range 0.5945 0.6265000000000001
endheader
time	ground_force_vx	ground_force_vy	ground_force_vz	ground_force_px	ground_force_py	ground_force_pz	l_ground_force_vx	l_ground_force_vy	l_ground_force_vz	l_ground_force_px	l_ground_force_py	l_ground_force_pz	ground_torque_x	ground_torque_y	ground_torque_z	l_ground_torque_x	l_ground_torque_y	l_ground_torque_z
0.5945	-0.0	-0.0	-0.0	-0.3707976937294006	-18.271732330322266	-1000.0950927734376	-0.0	-0.0	-0.0	-0.0	-0.0	-0.0	-0.0	-0.0	-0.0	-0.0	-0.0	-0.0
0.595	-0.0	-0.0	-0.0	-0.2065297067165374	-16.941797256469727	-1000.9119873046876	-0.0	-0.0	-0.0	-0.0	-0.0	-0.0	-0.0	-0.0	-0.0	-0.0	-0.0	-0.0
0.5955	-0.0	-0.0	-0.0	-0.5494359731674194	-15.565330505371094	-1001.5060424804688	-0.0	-0.0	-0.0	-0.0	-0.0	-0.0	-0.0	-0.0	-0.0	-0.0	-0.0	-0.0
0.596	-0.0	-0.0	-0.0	0.0143186897039413	-15.554903030395508	-1001.6182861328124	-0.0	-0.0	-0.0	-0.0	-0.0	-0.0	-0.0	-0.0	-0.0	-0.0	-0.0	-0.0
0.5965	-0.0	-0.0	-0.0	0.310882031917572	-14.386004447937012	-1002.0	-0.0	-0.0	-0.0	-0.0	-0.0	-0.0	-0.0	-0.0	-0.0	-0.0	-0.0	-0.0
0.597	-0.0	-0.0	-0.0	1.2780723571777344	-13.39138412475586	-1003.3553466796876	-0.0	-0.0	-0.0	-0.0	-0.0	-0.0	-0.0	-0.0	-0.0	-0.0	-0.0	-0.0
0.5975	-0.0	-0.0	-0.0	2.840054750442505	-12.129069328308104	-1003.9743041992188	-0.0	-0.0	-0.0	-0.0	-0.0	-0.0	-0.0	-0.0	-0.0	-0.0	-0.0	-0.0
0.598	-0.0	-0.0	-0.0	4.445745468139648	-10.71041488647461	-1000.4396362304688	-0.0	-0.0	-0.0	-0.0	-0.0	-0.0	-0.0	-0.0	-0.0	-0.0	-0.0	-0.0
0.5985	-0.0	-0.0	-0.0	5.412333488464356	-9.12112522125244	-1001.5296630859376	-0.0	-0.0	-0.0	-0.0	-0.0	-0.0	-0.0	-0.0	-0.0	-0.0	-0.0	-0.0
0.599	-0.0	-0.0	-0.0	7.29269552230835	-8.49744987487793	-1000.1162109375	-0.0	-0.0	-0.0	-0.0	-0.0	-0.0	-0.0	-0.0	-0.0	-0.0	-0.0	-0.0
0.5995	-0.0	-0.0	-0.0	8.683704376220703	-6.663729667663574	-998.7928466796876	-0.0	-0.0	-0.0	-0.0	-0.0	-0.0	-0.0	-0.0	-0.0	-0.0	-0.0	-0.0
0.6	-0.0	-0.0	-0.0	10.600762367248535	-4.30117130279541	-996.4718627929688	-0.0	-0.0	-0.0	-0.0	-0.0	-0.0	-0.0	-0.0	-0.0	-0.0	-0.0	-0.0
0.6005	-0.0	-0.0	-0.0	11.240524291992188	-2.251319646835327	-996.0587768554688	-0.0	-0.0	-0.0	-0.0	-0.0	-0.0	-0.0	-0.0	-0.0	-0.0	-0.0	-0.0
0.601	-0.0	-0.0	-0.0	11.694343566894531	-0.6161534786224365	-992.5586547851562	-0.0	-0.0	-0.0	-0.0	-0.0	-0.0	-0.0	-0.0	-0.0	-0.0	-0.0	-0.0
0.6015	-0.0	-0.0	-0.0	11.73666000366211	0.8834854960441589	-993.21630859375	-0.0	-0.0	-0.0	-0.0	-0.0	-0.0	-0.0	-0.0	-0.0	-0.0	-0.0	-0.0
0.602	-0.0	-0.0	-0.0	10.941394805908203	1.93726646900177	-990.3477172851562	-0.0	-0.0	-0.0	-0.0	-0.0	-0.0	-0.0	-0.0	-0.0	-0.0	-0.0	-0.0
0.6025	-0.0	-0.0	-0.0	9.561419486999512	2.398580551147461	-989.3513793945312	-0.0	-0.0	-0.0	-0.0	-0.0	-0.0	-0.0	-0.0	-0.0	-0.0	-0.0	-0.0
0.603	-0.0	-0.0	-0.0	8.158188819885254	2.584781646728516	-989.5785522460938	-0.0	-0.0	-0.0	-0.0	-0.0	-0.0	-0.0	-0.0	-0.0	-0.0	-0.0	-0.0
0.6035	-0.0	-0.0	-0.0	6.57681131362915	2.868269443511963	-989.8995971679688	-0.0	-0.0	-0.0	-0.0	-0.0	-0.0	-0.0	-0.0	-0.0	-0.0	-0.0	-0.0
0.604	-0.0	-0.0	-0.0	5.9445905685424805	3.321986675262451	-988.5828247070312	-0.0	-0.0	-0.0	-0.0	-0.0	-0.0	-0.0	-0.0	-0.0	-0.0	-0.0	-0.0
0.6045	-0.0	-0.0	-0.0	5.076821327209473	2.333731412887573	-989.9957275390624	-0.0	-0.0	-0.0	-0.0	-0.0	-0.0	-0.0	-0.0	-0.0	-0.0	-0.0	-0.0
0.605	-0.0	-0.0	-0.0	3.6014230251312256	1.4425729513168335	-990.669677734375	-0.0	-0.0	-0.0	-0.0	-0.0	-0.0	-0.0	-0.0	-0.0	-0.0	-0.0	-0.0
0.6055	-0.0	-0.0	-0.0	2.8796658515930176	0.9887368679046632	-990.7025756835938	-0.0	-0.0	-0.0	-0.0	-0.0	-0.0	-0.0	-0.0	-0.0	-0.0	-0.0	-0.0
0.606	-0.0	-0.0	-0.0	3.186501264572144	0.3648731410503387	-991.1221923828124	-0.0	-0.0	-0.0	-0.0	-0.0	-0.0	-0.0	-0.0	-0.0	-0.0	-0.0	-0.0
0.6065	-0.0	-0.0	-0.0	2.7353386878967285	-0.51793372631073	-991.9822387695312	-0.0	-0.0	-0.0	-0.0	-0.0	-0.0	-0.0	-0.0	-0.0	-0.0	-0.0	-0.0
0.607	-0.0	-0.0	-0.0	3.487700939178467	-1.6765108108520508	-992.788818359375	-0.0	-0.0	-0.0	-0.0	-0.0	-0.0	-0.0	-0.0	-0.0	-0.0	-0.0	-0.0
0.6075	-0.0	-0.0	-0.0	4.2564849853515625	-2.665379762649536	-992.40185546875	-0.0	-0.0	-0.0	-0.0	-0.0	-0.0	-0.0	-0.0	-0.0	-0.0	-0.0	-0.0
0.608	-0.0	-0.0	-0.0	4.736769676208496	-3.153984308242798	-994.9078369140624	-0.0	-0.0	-0.0	-0.0	-0.0	-0.0	-0.0	-0.0	-0.0	-0.0	-0.0	-0.0
0.6085	-0.0	-0.0	-0.0	5.3266448974609375	-4.036830425262451	-997.8464965820312	-0.0	-0.0	-0.0	-0.0	-0.0	-0.0	-0.0	-0.0	-0.0	-0.0	-0.0	-0.0
0.609	-0.0	-0.0	-0.0	5.720070838928223	-4.626053810119629	-999.5338745117188	-0.0	-0.0	-0.0	-0.0	-0.0	-0.0	-0.0	-0.0	-0.0	-0.0	-0.0	-0.0
0.6095	-0.0	-0.0	-0.0	4.960612773895264	-4.625994682312012	-1001.1607055664062	-0.0	-0.0	-0.0	-0.0	-0.0	-0.0	-0.0	-0.0	-0.0	-0.0	-0.0	-0.0
0.61	-0.0	-0.0	-0.0	4.326318740844727	-3.939407587051392	-1003.6674194335938	-0.0	-0.0	-0.0	-0.0	-0.0	-0.0	-0.0	-0.0	-0.0	-0.0	-0.0	-0.0
0.6105	-0.0	-0.0	-0.0	3.7468414306640634	-3.1819710731506348	-1003.6312255859376	-0.0	-0.0	-0.0	-0.0	-0.0	-0.0	-0.0	-0.0	-0.0	-0.0	-0.0	-0.0
0.611	-0.0	-0.0	-0.0	4.638946533203125	-1.951901912689209	-1006.174072265625	-0.0	-0.0	-0.0	-0.0	-0.0	-0.0	-0.0	-0.0	-0.0	-0.0	-0.0	-0.0
0.6115	-0.0	-0.0	-0.0	4.835415363311768	0.0710987895727157	-1007.2691650390624	-0.0	-0.0	-0.0	-0.0	-0.0	-0.0	-0.0	-0.0	-0.0	-0.0	-0.0	-0.0
0.612	-0.0	-0.0	-0.0	5.620262145996094	1.6316131353378296	-1006.3896484375	-0.0	-0.0	-0.0	-0.0	-0.0	-0.0	-0.0	-0.0	-0.0	-0.0	-0.0	-0.0
0.6125	-0.0	-0.0	-0.0	6.155525207519531	3.503499746322632	-1006.4542236328124	-0.0	-0.0	-0.0	-0.0	-0.0	-0.0	-0.0	-0.0	-0.0	-0.0	-0.0	-0.0
0.613	-0.0	-0.0	-0.0	6.983096122741699	4.28747034072876	-1004.2000732421876	-0.0	-0.0	-0.0	-0.0	-0.0	-0.0	-0.0	-0.0	-0.0	-0.0	-0.0	-0.0
0.6135	-0.0	-0.0	-0.0	7.64426851272583	5.657995223999023	-1003.3106689453124	-0.0	-0.0	-0.0	-0.0	-0.0	-0.0	-0.0	-0.0	-0.0	-0.0	-0.0	-0.0
0.614	-0.0	-0.0	-0.0	8.385787963867188	6.21117115020752	-1000.20556640625	-0.0	-0.0	-0.0	-0.0	-0.0	-0.0	-0.0	-0.0	-0.0	-0.0	-0.0	-0.0
0.6145	-0.0	-0.0	-0.0	8.841240882873535	6.4549560546875	-1002.1386108398438	-0.0	-0.0	-0.0	-0.0	-0.0	-0.0	-0.0	-0.0	-0.0	-0.0	-0.0	-0.0
0.615	-0.0	-0.0	-0.0	9.08055305480957	6.4929962158203125	-1000.5587158203124	-0.0	-0.0	-0.0	-0.0	-0.0	-0.0	-0.0	-0.0	-0.0	-0.0	-0.0	-0.0
0.6155	-0.0	-0.0	-0.0	8.883016586303711	6.7739105224609375	-1001.8585205078124	-0.0	-0.0	-0.0	-0.0	-0.0	-0.0	-0.0	-0.0	-0.0	-0.0	-0.0	-0.0
0.616	-0.0	-0.0	-0.0	8.057690620422363	7.0921406745910645	-1001.26513671875	-0.0	-0.0	-0.0	-0.0	-0.0	-0.0	-0.0	-0.0	-0.0	-0.0	-0.0	-0.0
0.6165	-0.0	-0.0	-0.0	7.194626808166504	6.694402694702148	-1000.8738403320312	-0.0	-0.0	-0.0	-0.0	-0.0	-0.0	-0.0	-0.0	-0.0	-0.0	-0.0	-0.0
0.617	-0.0	-0.0	-0.0	6.749011516571045	6.328258514404297	-1000.8351440429688	-0.0	-0.0	-0.0	-0.0	-0.0	-0.0	-0.0	-0.0	-0.0	-0.0	-0.0	-0.0
0.6175	-0.0	-0.0	-0.0	6.204340934753418	6.239128112792969	-999.6925048828124	-0.0	-0.0	-0.0	-0.0	-0.0	-0.0	-0.0	-0.0	-0.0	-0.0	-0.0	-0.0
0.618	-0.0	-0.0	-0.0	5.828120231628418	5.813083171844482	-999.85595703125	-0.0	-0.0	-0.0	-0.0	-0.0	-0.0	-0.0	-0.0	-0.0	-0.0	-0.0	-0.0
0.6185	-0.0	-0.0	-0.0	5.600491523742676	5.823105335235596	-1000.48046875	-0.0	-0.0	-0.0	-0.0	-0.0	-0.0	-0.0	-0.0	-0.0	-0.0	-0.0	-0.0
0.619	-0.0	-0.0	-0.0	5.412038803100586	5.753775119781494	-1000.9512939453124	-0.0	-0.0	-0.0	-0.0	-0.0	-0.0	-0.0	-0.0	-0.0	-0.0	-0.0	-0.0
0.6195	-0.0	-0.0	-0.0	5.531051635742188	5.308615684509277	-999.9711303710938	-0.0	-0.0	-0.0	-0.0	-0.0	-0.0	-0.0	-0.0	-0.0	-0.0	-0.0	-0.0
0.62	-0.0	-0.0	-0.0	5.977104187011719	5.307595252990723	-1002.4785766601562	-0.0	-0.0	-0.0	-0.0	-0.0	-0.0	-0.0	-0.0	-0.0	-0.0	-0.0	-0.0
0.6205	-0.0	-0.0	-0.0	5.839144229888916	5.100645065307617	-1002.32470703125	-0.0	-0.0	-0.0	-0.0	-0.0	-0.0	-0.0	-0.0	-0.0	-0.0	-0.0	-0.0
0.621	-0.0	-0.0	-0.0	5.740036964416504	5.4267754554748535	-1000.5587158203124	-0.0	-0.0	-0.0	-0.0	-0.0	-0.0	-0.0	-0.0	-0.0	-0.0	-0.0	-0.0
0.6215	-0.0	-0.0	-0.0	5.928883075714111	5.238217353820801	-1001.4559936523438	-0.0	-0.0	-0.0	-0.0	-0.0	-0.0	-0.0	-0.0	-0.0	-0.0	-0.0	-0.0
0.622	-0.0	-0.0	-0.0	5.404111862182617	5.55694580078125	-998.2088012695312	-0.0	-0.0	-0.0	-0.0	-0.0	-0.0	-0.0	-0.0	-0.0	-0.0	-0.0	-0.0
0.6225	-0.0	-0.0	-0.0	4.848474979400635	5.646294593811035	-997.4622192382812	-0.0	-0.0	-0.0	-0.0	-0.0	-0.0	-0.0	-0.0	-0.0	-0.0	-0.0	-0.0
0.623	-0.0	-0.0	-0.0	4.234606742858887	5.751800537109375	-996.0728759765624	-0.0	-0.0	-0.0	-0.0	-0.0	-0.0	-0.0	-0.0	-0.0	-0.0	-0.0	-0.0
0.6235	-0.0	-0.0	-0.0	3.489686965942383	6.1763224601745605	-994.59619140625	-0.0	-0.0	-0.0	-0.0	-0.0	-0.0	-0.0	-0.0	-0.0	-0.0	-0.0	-0.0
0.624	-0.0	-0.0	-0.0	2.644665479660034	6.810338497161865	-994.512939453125	-0.0	-0.0	-0.0	-0.0	-0.0	-0.0	-0.0	-0.0	-0.0	-0.0	-0.0	-0.0
0.6245	-0.0	-0.0	-0.0	0.9707165360450744	7.633445739746094	-992.1663208007812	-0.0	-0.0	-0.0	-0.0	-0.0	-0.0	-0.0	-0.0	-0.0	-0.0	-0.0	-0.0
0.625	-0.0	-0.0	-0.0	-0.1784210205078125	8.724117279052734	-988.5355224609376	-0.0	-0.0	-0.0	-0.0	-0.0	-0.0	-0.0	-0.0	-0.0	-0.0	-0.0	-0.0
0.6255000000000001	-0.0	-0.0	-0.0	-1.0168709754943848	9.312447547912598	-988.409912109375	-0.0	-0.0	-0.0	-0.0	-0.0	-0.0	-0.0	-0.0	-0.0	-0.0	-0.0	-0.0
0.626	-0.0	-0.0	-0.0	-1.862640142440796	10.249996185302734	-988.3799438476562	-0.0	-0.0	-0.0	-0.0	-0.0	-0.0	-0.0	-0.0	-0.0	-0.0	-0.0	-0.0
0.6265000000000001	-0.0	-0.0	-0.0	-2.5653979778289795	10.328283309936523	-986.8277587890624	-0.0	-0.0	-0.0	-0.0	-0.0	-0.0	-0.0	-0.0	-0.0	-0.0	-0.0	-0.0
